<svg width="3711" height="752" viewBox="0 0 3711 752" fill="none" xmlns="http://www.w3.org/2000/svg">
<path fill-rule="evenodd" clip-rule="evenodd" d="M3382.56 11.8131C3445.27 7.36947 3507.62 24.7328 3558.99 60.9667C3770.99 207.775 3759.67 581.405 3527.97 704.532C3495.25 721.92 3467.79 728.109 3431.69 734.508C3367.67 741.285 3298.75 720.621 3246.97 682.765C3081.04 561.36 3056.73 299.121 3174.8 136.788C3228.5 62.925 3293.44 26.0431 3382.56 11.8131ZM3430.43 656.961C3728.69 602.488 3685.18 62.6026 3379.74 90.3852C3229.4 113.453 3158.06 288.262 3180.54 424.85C3202.05 555.465 3287.58 667.989 3430.43 656.961Z" fill="#FFFFFF"></path>
<path fill-rule="evenodd" clip-rule="evenodd" d="M276.571 53.7803C390.541 40.9112 476.068 81.6514 549.995 166.356C412.442 298.848 270.365 444.963 135.125 580.984C228.343 702.817 379.044 704.411 484.505 596.763L487.616 594.264C495.201 597.098 532.549 640.999 539.971 649.397C494.061 700.357 432.626 734.774 365.177 747.326C289.869 760.928 209.252 741.633 147.442 697.381C-94.6372 524.066 -29.6371 108.305 276.571 53.7803ZM310.826 127.425C154.539 140.583 64.9169 278.556 77.7444 428.236C80.6704 463.369 89.396 497.773 103.557 530.059C122.934 511.224 143.169 492.057 162.08 472.85L455.707 179.609C415.405 145.124 363.87 126.563 310.826 127.425Z" fill="#FFFFFF"></path>
<path fill-rule="evenodd" clip-rule="evenodd" d="M1017.36 40.9443C1024.44 40.5751 1031.54 40.5396 1038.62 40.8454C1132.98 45.4202 1201.86 87.4 1263.71 155.651C1124.44 293.406 985.884 431.88 848.048 571.061C908.919 649.57 1007.98 688.791 1103.94 651.063C1144.14 635.257 1169.21 614.016 1201.1 585.24L1205.33 586.013C1219.36 602.963 1238 622.227 1253.12 638.664C1202.85 695.189 1131.08 733.522 1055.33 739.867C976.343 746.915 897.842 721.807 837.618 670.232C614.061 481.021 703.778 66.9891 1017.36 40.9443ZM1168.58 168.301C1115.02 130.121 1072.3 113.174 1005.61 119.4C862.48 133.329 777.134 284.744 790.272 418.7C793.386 453.504 802.569 487.497 817.406 519.138L1168.58 168.301Z" fill="#FFFFFF"></path>
<path d="M2020.22 18.2337C2025.57 19.9751 2029.47 22.4887 2033.61 26.2388C2216.64 192.301 2225.39 505.544 2068.08 690.033L1585.47 185.732C1515.51 337.919 1530.48 539.116 1654.79 659.276C1659.89 664.212 1665.04 669.103 1670.22 673.967C1657.22 693.688 1648.57 721.212 1634.09 736.393C1626.21 737.696 1627.86 736.861 1619.96 731.255C1436.55 567.024 1417.39 271.899 1564.77 78.2146C1576.88 95.0124 1602.87 121.119 1617.64 136.694C1652.93 173.729 1688.41 210.579 1724.09 247.248L2048.78 587.266C2142.84 423.375 2116.83 192.895 1966.21 70.7077L2020.22 18.2337Z" fill="#FFFFFF"></path>
<path d="M2537.65 0C2542.45 2.8047 2568.12 60.1631 2573.2 70.4194C2512.74 116.916 2474.78 177.065 2453.41 250.146C2420.53 362.983 2433.76 484.246 2490.16 587.365C2541.74 529.493 2608.64 463.211 2663.18 406.046L2967.89 87.9645L3008.11 128.495L2960.04 177.881C2866.75 276.866 2772.79 375.208 2678.14 472.901C2609.9 544.226 2540.59 620.4 2470.75 689.635C2300.34 505.622 2329.58 148.19 2537.65 0Z" fill="#FFFFFF"></path>
</svg>