<svg width="1541" height="708" viewBox="0 0 1541 708" fill="none" xmlns="http://www.w3.org/2000/svg">
<path d="M1013.8 2.42693L769.597 195.512L526.44 9.20476e-05L674.59 357.11L547.529 704.855L769.648 510.906L992.685 707.201L867.259 357.11L1013.8 2.42693Z" fill="#AB59D9"/>
<path d="M526.452 0.0509009C743.234 172.336 760.264 514.633 547.565 704.874L0.000129685 165.777L47.2352 118.542L540.967 611.179C676.823 460.837 664.092 178.845 474.145 52.0676L526.452 0.0509009Z" fill="#F6F6F6"/>
<path d="M1013.81 2.38681C797.027 174.672 779.997 516.969 992.696 707.21L1540.26 168.113L1493.03 120.878L999.294 613.515C863.438 463.174 876.169 181.181 1066.12 54.4034L1013.81 2.38681Z" fill="#F6F6F6"/>
</svg>
